<svg xmlns="http://www.w3.org/2000/svg" width="1200" height="630" viewBox="0 0 1200 630" role="img" aria-labelledby="t d"><title id="t">Propeller AI sports betting research</title><desc id="d">A signal map showing market, form, role, matchup, and availability flowing into inspectable player-prop research.</desc><rect width="1200" height="630" fill="#f2efe8"/><path d="M0 0h1200v630H0z" fill="url(#g)"/><defs><pattern id="g" width="32" height="32" patternUnits="userSpaceOnUse"><path d="M32 0H0v32" fill="none" stroke="#101311" stroke-opacity=".06"/></pattern></defs><g font-family="Arial,sans-serif" fill="#101311"><text x="72" y="90" font-size="24" font-weight="700">PROPELLER / AI RESEARCH</text><text x="72" y="205" font-size="76" font-weight="700">Question the line.</text><text x="72" y="280" font-size="76" font-weight="700" fill="#1649d8">Inspect the signals.</text><g font-size="20"><rect x="72" y="370" width="180" height="90" fill="#f6dd68" stroke="#101311"/><text x="95" y="423">MARKET + LINE</text><rect x="260" y="370" width="160" height="90" fill="#faf8f3" stroke="#101311"/><text x="292" y="423">FORM</text><rect x="428" y="370" width="160" height="90" fill="#faf8f3" stroke="#101311"/><text x="468" y="423">ROLE</text><rect x="596" y="370" width="180" height="90" fill="#faf8f3" stroke="#101311"/><text x="630" y="423">MATCHUP</text><rect x="784" y="370" width="190" height="90" fill="#faf8f3" stroke="#101311"/><text x="817" y="423">AVAILABILITY</text><path d="M982 415h70" stroke="#ff6038" stroke-width="8"/><path d="m1040 395 28 20-28 20" fill="none" stroke="#ff6038" stroke-width="8"/><text x="72" y="545" font-size="18">Confidence is model conviction, not calibrated win probability.</text></g></g></svg>
